HIERARCHY
ROOT mixamorig:Hips
{
	OFFSET 0.000000 97.439201 0.000000
	CHANNELS 6 Xposition Yposition Zposition Xrotation Yrotation Zrotation
	JOINT mixamorig:Spine
	{
		OFFSET 0.000000 10.246803 -1.182900
		CHANNELS 3 Xrotation Yrotation Zrotation
		JOINT mixamorig:Spine1
		{
			OFFSET 0.000000 11.954597 -1.380086
			CHANNELS 3 Xrotation Yrotation Zrotation
			JOINT mixamorig:Spine2
			{
				OFFSET 0.000000 13.662361 -1.577237
				CHANNELS 3 Xrotation Yrotation Zrotation
				JOINT mixamorig:Neck
				{
					OFFSET 0.000000 15.370239 -1.774399
					CHANNELS 3 Xrotation Yrotation Zrotation
					JOINT mixamorig:Head
					{
						OFFSET 0.000000 6.121704 2.117600
						CHANNELS 3 Xrotation Yrotation Zrotation
						JOINT mixamorig:HeadTop_End
						{
							OFFSET 0.000000 23.480103 8.122100
							CHANNELS 3 Xrotation Yrotation Zrotation
							End Site
							{
								OFFSET 0.000000 24.845200 0.000000
							}
						}
					}
				}
				JOINT mixamorig:LeftShoulder
				{
					OFFSET 6.584100 13.564301 -1.766640
					CHANNELS 3 Xrotation Yrotation Zrotation
					JOINT mixamorig:LeftArm
					{
						OFFSET 13.322093 -3.531372 0.015528
						CHANNELS 3 Xrotation Yrotation Zrotation
						JOINT mixamorig:LeftForeArm
						{
							OFFSET 25.861839 0.000000 0.000001
							CHANNELS 3 Xrotation Yrotation Zrotation
							JOINT mixamorig:LeftHand
							{
								OFFSET 24.066311 0.000000 0.000001
								CHANNELS 3 Xrotation Yrotation Zrotation
								JOINT mixamorig:LeftHandThumb1
								{
									OFFSET 3.138794 -1.265854 2.647181
									CHANNELS 3 Xrotation Yrotation Zrotation
									JOINT mixamorig:LeftHandThumb2
									{
										OFFSET 2.662651 -1.537277 1.537284
										CHANNELS 3 Xrotation Yrotation Zrotation
										JOINT mixamorig:LeftHandThumb3
										{
											OFFSET 2.570145 -1.483871 1.483872
											CHANNELS 3 Xrotation Yrotation Zrotation
											JOINT mixamorig:LeftHandThumb4
											{
												OFFSET 2.200981 -1.270737 1.270736
												CHANNELS 3 Xrotation Yrotation Zrotation
												End Site
												{
													OFFSET 1.885750 -1.227737 1.735064
												}
											}
										}
									}
								}
								JOINT mixamorig:LeftHandIndex1
								{
									OFFSET 10.405411 -0.300232 2.648106
									CHANNELS 3 Xrotation Yrotation Zrotation
									JOINT mixamorig:LeftHandIndex2
									{
										OFFSET 3.184044 0.000000 0.000000
										CHANNELS 3 Xrotation Yrotation Zrotation
										JOINT mixamorig:LeftHandIndex3
										{
											OFFSET 2.887520 0.000000 0.000000
											CHANNELS 3 Xrotation Yrotation Zrotation
											JOINT mixamorig:LeftHandIndex4
											{
												OFFSET 2.475807 0.000000 0.000000
												CHANNELS 3 Xrotation Yrotation Zrotation
												End Site
												{
													OFFSET 2.475807 -0.000107 -0.006699
												}
											}
										}
									}
								}
								JOINT mixamorig:LeftHandMiddle1
								{
									OFFSET 10.112617 0.000000 0.000000
									CHANNELS 3 Xrotation Yrotation Zrotation
									JOINT mixamorig:LeftHandMiddle2
									{
										OFFSET 3.478561 0.000000 0.000000
										CHANNELS 3 Xrotation Yrotation Zrotation
										JOINT mixamorig:LeftHandMiddle3
										{
											OFFSET 3.196815 0.000000 0.000000
											CHANNELS 3 Xrotation Yrotation Zrotation
											JOINT mixamorig:LeftHandMiddle4
											{
												OFFSET 2.838127 0.000000 0.000000
												CHANNELS 3 Xrotation Yrotation Zrotation
												End Site
												{
													OFFSET 2.838097 -0.000229 -0.011498
												}
											}
										}
									}
								}
								JOINT mixamorig:LeftHandRing1
								{
									OFFSET 9.766037 0.002869 -2.231968
									CHANNELS 3 Xrotation Yrotation Zrotation
									JOINT mixamorig:LeftHandRing2
									{
										OFFSET 2.912598 0.000000 0.000000
										CHANNELS 3 Xrotation Yrotation Zrotation
										JOINT mixamorig:LeftHandRing3
										{
											OFFSET 2.743797 0.000000 0.000000
											CHANNELS 3 Xrotation Yrotation Zrotation
											JOINT mixamorig:LeftHandRing4
											{
												OFFSET 2.426300 0.000000 0.000000
												CHANNELS 3 Xrotation Yrotation Zrotation
												End Site
												{
													OFFSET 2.426300 0.000076 0.002099
												}
											}
										}
									}
								}
								JOINT mixamorig:LeftHandPinky1
								{
									OFFSET 8.462975 -0.296494 -4.344542
									CHANNELS 3 Xrotation Yrotation Zrotation
									JOINT mixamorig:LeftHandPinky2
									{
										OFFSET 2.761932 0.000000 0.000000
										CHANNELS 3 Xrotation Yrotation Zrotation
										JOINT mixamorig:LeftHandPinky3
										{
											OFFSET 2.226311 0.000000 0.000000
											CHANNELS 3 Xrotation Yrotation Zrotation
											JOINT mixamorig:LeftHandPinky4
											{
												OFFSET 2.001915 0.000000 0.000000
												CHANNELS 3 Xrotation Yrotation Zrotation
												End Site
												{
													OFFSET 2.001892 -0.000168 -0.006998
												}
											}
										}
									}
								}
							}
						}
					}
				}
				JOINT mixamorig:RightShoulder
				{
					OFFSET -6.584100 13.564331 -1.782145
					CHANNELS 3 Xrotation Yrotation Zrotation
					JOINT mixamorig:RightArm
					{
						OFFSET -13.322087 -3.531387 -0.015528
						CHANNELS 3 Xrotation Yrotation Zrotation
						JOINT mixamorig:RightForeArm
						{
							OFFSET -25.995886 0.000000 -0.000000
							CHANNELS 3 Xrotation Yrotation Zrotation
							JOINT mixamorig:RightHand
							{
								OFFSET -23.930798 0.000000 -0.000000
								CHANNELS 3 Xrotation Yrotation Zrotation
								JOINT mixamorig:RightHandThumb1
								{
									OFFSET -3.103348 -1.214722 2.665987
									CHANNELS 3 Xrotation Yrotation Zrotation
									JOINT mixamorig:RightHandThumb2
									{
										OFFSET -2.644638 -1.526886 1.526883
										CHANNELS 3 Xrotation Yrotation Zrotation
										JOINT mixamorig:RightHandThumb3
										{
											OFFSET -2.548042 -1.471115 1.471114
											CHANNELS 3 Xrotation Yrotation Zrotation
											JOINT mixamorig:RightHandThumb4
											{
												OFFSET -2.086876 -1.204865 1.204859
												CHANNELS 3 Xrotation Yrotation Zrotation
												End Site
												{
													OFFSET -1.801620 -1.154358 1.637092
												}
											}
										}
									}
								}
								JOINT mixamorig:RightHandIndex1
								{
									OFFSET -9.891205 -0.413467 2.629802
									CHANNELS 3 Xrotation Yrotation Zrotation
									JOINT mixamorig:RightHandIndex2
									{
										OFFSET -3.265656 0.000000 0.000000
										CHANNELS 3 Xrotation Yrotation Zrotation
										JOINT mixamorig:RightHandIndex3
										{
											OFFSET -3.106102 0.000000 0.000000
											CHANNELS 3 Xrotation Yrotation Zrotation
											JOINT mixamorig:RightHandIndex4
											{
												OFFSET -2.514259 0.000000 0.000000
												CHANNELS 3 Xrotation Yrotation Zrotation
												End Site
												{
													OFFSET -2.514099 -0.000443 -0.027997
												}
											}
										}
									}
								}
								JOINT mixamorig:RightHandMiddle1
								{
									OFFSET -10.108925 0.000000 0.000000
									CHANNELS 3 Xrotation Yrotation Zrotation
									JOINT mixamorig:RightHandMiddle2
									{
										OFFSET -3.489250 0.000000 0.000000
										CHANNELS 3 Xrotation Yrotation Zrotation
										JOINT mixamorig:RightHandMiddle3
										{
											OFFSET -3.236908 0.000000 0.000000
											CHANNELS 3 Xrotation Yrotation Zrotation
											JOINT mixamorig:RightHandMiddle4
											{
												OFFSET -2.756126 0.000000 0.000000
												CHANNELS 3 Xrotation Yrotation Zrotation
												End Site
												{
													OFFSET -2.756096 -0.000214 -0.011498
												}
											}
										}
									}
								}
								JOINT mixamorig:RightHandRing1
								{
									OFFSET -9.832733 -0.175018 -2.119855
									CHANNELS 3 Xrotation Yrotation Zrotation
									JOINT mixamorig:RightHandRing2
									{
										OFFSET -2.832802 0.000000 0.000000
										CHANNELS 3 Xrotation Yrotation Zrotation
										JOINT mixamorig:RightHandRing3
										{
											OFFSET -2.766335 0.000000 0.000000
											CHANNELS 3 Xrotation Yrotation Zrotation
											JOINT mixamorig:RightHandRing4
											{
												OFFSET -2.344864 0.000000 0.000000
												CHANNELS 3 Xrotation Yrotation Zrotation
												End Site
												{
													OFFSET -2.344795 0.000473 0.017694
												}
											}
										}
									}
								}
								JOINT mixamorig:RightHandPinky1
								{
									OFFSET -8.564178 -0.350037 -4.300325
									CHANNELS 3 Xrotation Yrotation Zrotation
									JOINT mixamorig:RightHandPinky2
									{
										OFFSET -2.646233 0.000000 0.000000
										CHANNELS 3 Xrotation Yrotation Zrotation
										JOINT mixamorig:RightHandPinky3
										{
											OFFSET -2.261864 0.000000 0.000000
											CHANNELS 3 Xrotation Yrotation Zrotation
											JOINT mixamorig:RightHandPinky4
											{
												OFFSET -1.954506 0.000000 0.000000
												CHANNELS 3 Xrotation Yrotation Zrotation
												End Site
												{
													OFFSET -1.954498 0.000092 0.004099
												}
											}
										}
									}
								}
							}
						}
					}
				}
			}
		}
	}
	JOINT mixamorig:LeftUpLeg
	{
		OFFSET 7.983700 -5.694298 -0.735200
		CHANNELS 3 Xrotation Yrotation Zrotation
		JOINT mixamorig:LeftLeg
		{
			OFFSET 1.208505 -42.761528 -3.138802
			CHANNELS 3 Xrotation Yrotation Zrotation
			JOINT mixamorig:LeftFoot
			{
				OFFSET -1.208506 -38.163300 -2.010041
				CHANNELS 3 Xrotation Yrotation Zrotation
				JOINT mixamorig:LeftToeBase
				{
					OFFSET 1.841840 -10.410353 14.836088
					CHANNELS 3 Xrotation Yrotation Zrotation
					JOINT mixamorig:LeftToe_End
					{
						OFFSET 0.820596 -0.120798 6.988551
						CHANNELS 3 Xrotation Yrotation Zrotation
						End Site
						{
							OFFSET 0.820596 -0.120798 6.988551
						}
					}
				}
			}
		}
	}
	JOINT mixamorig:RightUpLeg
	{
		OFFSET -7.983700 -5.694298 -0.831100
		CHANNELS 3 Xrotation Yrotation Zrotation
		JOINT mixamorig:RightLeg
		{
			OFFSET -1.208402 -42.761509 -2.372174
			CHANNELS 3 Xrotation Yrotation Zrotation
			JOINT mixamorig:RightFoot
			{
				OFFSET 1.208405 -38.162746 -2.730814
				CHANNELS 3 Xrotation Yrotation Zrotation
				JOINT mixamorig:RightToeBase
				{
					OFFSET -1.842189 -10.413905 14.893202
					CHANNELS 3 Xrotation Yrotation Zrotation
					JOINT mixamorig:RightToe_End
					{
						OFFSET -0.820738 -0.122444 6.961618
						CHANNELS 3 Xrotation Yrotation Zrotation
						End Site
						{
							OFFSET -0.820738 -0.122444 6.961618
						}
					}
				}
			}
		}
	}
}
MOTION
Frames: 4
Frame Time: 0.033333
0.094644 57.332016 -14.278900 17.994338 -3.133220 -2.819068 2.367910 0.340814 0.410244 2.930046 0.334370 0.656143 2.926586 0.321497 0.683320 -20.825513 -1.901462 2.933230 4.896704 2.462483 -2.182603 0.000000 0.000000 0.000000 -1.749751 -6.036596 -1.534019 -27.416159 -74.007975 0.649781 0.000000 -3.632144 -0.000005 -27.645529 -7.983296 -4.660965 0.699768 -6.020112 19.223929 15.918210 20.653196 2.508650 2.707217 -2.664554 4.388463 -0.000003 -0.000003 -0.000001 -0.723307 0.701210 -17.341487 0.753633 2.876239 -29.358759 0.253287 1.705599 -16.892417 0.000001 -0.000001 -0.000001 0.636411 4.890733 -23.832121 1.327970 3.715520 -39.323243 0.457603 2.271714 -22.774892 0.000000 0.000000 0.000000 0.769250 5.195469 -34.016367 0.966592 3.225192 -33.358763 0.524438 2.424670 -24.406214 -0.000001 0.000001 -0.000000 1.608216 10.167777 -44.264967 0.580841 2.545149 -25.706641 0.088268 1.014205 -9.947768 -0.000000 0.000001 -0.000000 0.258359 8.930142 -3.012980 -26.830253 71.128217 6.015624 -0.000005 4.911074 -0.000002 -21.673741 7.630838 -2.007346 -13.495597 -11.552023 -5.371122 9.647433 -12.885294 -10.896970 2.467262 1.050644 -27.948000 -0.000001 0.000001 0.000002 -0.004632 -1.532327 17.306443 0.624527 -2.331527 29.987030 0.157417 -1.201873 14.923916 0.000000 -0.000003 -0.000000 -2.447138 2.303865 24.373035 0.946007 -2.815607 37.137146 0.547246 -2.192232 28.028801 0.000000 0.000002 0.000000 -4.294487 0.433400 43.742502 0.363873 -1.806378 22.776787 0.311980 -1.677445 21.069201 0.000000 -0.000000 0.000000 -7.407900 3.578462 44.464921 0.609153 -2.304697 29.606811 0.124344 -1.070059 13.255056 0.000000 -0.000000 0.000000 -95.474344 -5.807256 23.123148 115.426878 -3.973340 1.832594 -36.592527 -0.150510 -1.207445 -1.387804 0.000002 0.000003 -0.000000 -0.000000 0.000000 -94.424292 0.217300 -15.556082 110.912683 4.396814 -1.520174 -33.529440 0.541589 1.561609 -1.487074 0.000003 -0.000000 0.000000 0.000001 -0.000000 
0.175463 60.938454 -13.781019 17.945390 -3.050349 -2.735211 2.172621 0.291782 0.344199 2.742040 0.298022 0.561776 2.738677 0.290056 0.585868 -20.602757 -2.047414 3.270928 4.343727 2.612679 -2.577411 -0.000000 0.000000 -0.000000 -1.400338 -6.497002 -2.293030 -30.956658 -72.191486 -6.437006 0.000002 -4.572079 -0.000011 -26.018043 -7.937085 -5.067460 0.699764 -6.020112 19.223933 16.046857 20.937853 2.356384 2.588991 -2.993331 4.807793 -0.000000 -0.000003 -0.000003 -0.664465 0.948999 -17.622020 0.755845 2.880178 -29.403056 0.258245 1.721856 -17.058397 0.000001 0.000002 0.000000 0.697223 5.024866 -24.050981 1.330786 3.718959 -39.367154 0.458699 2.274319 -22.802431 0.000000 0.000001 0.000000 0.873008 5.354692 -34.530493 0.969216 3.229193 -33.405513 0.525058 2.426029 -24.420727 -0.000000 -0.000002 -0.000000 1.796081 10.331261 -44.892453 0.584202 2.552109 -25.782180 0.087951 1.012452 -9.930418 0.000000 0.000003 0.000001 0.643497 9.869535 -2.237398 -28.564524 69.359089 11.263943 -0.000005 5.252474 0.000006 -19.112135 7.190124 -1.252902 -13.495594 -11.552017 -5.371120 10.328843 -14.439983 -10.173931 2.492707 0.456288 -27.390616 -0.000001 -0.000000 -0.000002 0.002568 -1.682008 18.017879 0.627497 -2.336654 30.059997 0.158336 -1.205311 14.967627 -0.000000 0.000000 -0.000000 -2.441259 2.172455 24.761767 0.946274 -2.815960 37.142627 0.548607 -2.194807 28.064691 0.000000 0.000001 0.000000 -4.292408 0.343294 44.164314 0.360281 -1.797798 22.662467 0.313046 -1.680247 21.106154 -0.000000 -0.000003 -0.000000 -7.465348 3.523040 44.825230 0.603505 -2.294752 29.466362 0.124742 -1.071774 13.276709 0.000000 0.000001 -0.000000 -90.957035 -4.636972 22.356946 109.954503 -3.226279 1.396796 -35.730055 0.108467 -1.835336 -1.356073 0.000011 -0.000002 -0.000000 -0.000001 0.000000 -89.848803 -0.316770 -15.007853 105.336851 4.020015 -1.130958 -32.546517 0.335535 2.178605 -1.320145 0.000004 -0.000000 -0.000000 -0.000001 -0.000000 
0.259046 64.667114 -13.119667 17.393495 -2.918067 -2.578818 2.003846 0.279145 0.270623 2.612209 0.316212 0.450726 2.608842 0.313812 0.473703 -20.321182 -2.159232 3.465177 4.407613 2.549985 -2.770928 0.000001 0.000000 0.000000 -0.846706 -7.740686 -3.310660 -32.798828 -69.388575 -12.206660 -0.000006 -5.659954 0.000003 -23.634010 -7.786014 -5.213617 0.699768 -6.020114 19.223931 16.275139 21.429838 2.088853 2.461162 -3.368256 5.319740 -0.000002 -0.000003 -0.000003 -0.624493 1.131162 -17.914246 0.760946 2.889195 -29.504474 0.258664 1.723206 -17.072107 0.000002 -0.000003 -0.000000 0.761749 5.161785 -24.423182 1.334936 3.723989 -39.430873 0.460105 2.277637 -22.837654 -0.000000 0.000001 0.000000 0.941228 5.458460 -35.078441 0.972445 3.234068 -33.462896 0.525243 2.426460 -24.425383 -0.000001 -0.000001 0.000001 1.952791 10.444385 -45.558755 0.583696 2.551055 -25.770714 0.088029 1.012873 -9.934586 0.000001 -0.000000 0.000000 1.158111 11.047272 -1.647079 -29.569982 66.725703 16.293944 -0.000004 5.521557 0.000008 -16.553843 6.792180 -0.716561 -13.495593 -11.552021 -5.371119 10.942315 -15.757224 -9.527516 2.524056 -0.177173 -26.763400 -0.000000 0.000004 0.000001 0.017908 -1.838857 18.514983 0.620170 -2.323973 29.879991 0.159223 -1.208595 15.009320 -0.000001 -0.000001 -0.000000 -2.392424 2.016582 24.921325 0.944980 -2.814253 37.116389 0.549229 -2.195954 28.080600 -0.000000 -0.000003 0.000000 -4.230395 0.247644 44.312160 0.357770 -1.791758 22.582291 0.314406 -1.683738 21.151977 0.000001 0.000000 0.000000 -7.384954 3.387795 44.981348 0.598509 -2.285865 29.340795 0.125340 -1.074374 13.309501 -0.000001 -0.000000 -0.000000 -85.770531 -3.297168 21.696132 104.065876 -2.632086 0.931533 -34.622202 0.300379 -2.346967 -1.315139 -0.000012 -0.000000 -0.000000 0.000001 0.000001 -84.603853 -0.782364 -14.589057 99.397086 3.701889 -0.712068 -31.357566 0.174657 2.692032 -1.167968 0.000011 -0.000002 0.000000 -0.000000 -0.000000 
0.310532 68.382278 -12.329729 16.432469 -2.745096 -2.543718 1.845965 0.273943 0.229984 2.506551 0.331175 0.371646 2.503134 0.332927 0.393172 -20.046520 -2.212662 3.485887 5.236264 2.326852 -2.556032 0.000001 -0.000000 -0.000000 -0.212228 -9.515332 -4.440121 -33.625841 -65.652209 -17.451630 0.000004 -6.595260 -0.000015 -20.825243 -7.524259 -5.042037 0.699773 -6.020113 19.223935 16.523474 21.952288 1.799305 2.350888 -3.708708 5.798851 -0.000002 0.000001 -0.000002 -0.544891 1.456119 -18.369169 0.771877 2.908419 -29.720465 0.263081 1.737503 -17.218518 -0.000001 -0.000000 0.000001 0.898642 5.445377 -24.963964 1.341050 3.731401 -39.524816 0.462550 2.283461 -22.899422 -0.000001 0.000000 0.000000 1.105563 5.692590 -35.673296 0.977510 3.241711 -33.552478 0.524696 2.425199 -24.411849 0.000000 -0.000002 -0.000003 2.151576 10.601949 -46.262155 0.590297 2.564704 -25.918946 0.087715 1.011111 -9.917313 0.000001 0.000001 0.000001 1.725353 12.726406 -0.979899 -29.359718 63.294175 20.579707 -0.000001 5.576935 -0.000002 -13.989650 6.328634 -0.228036 -13.495596 -11.552017 -5.371120 11.319988 -16.513222 -9.139693 2.541267 -0.450009 -26.487527 -0.000001 -0.000002 -0.000001 0.036629 -1.975631 18.771909 0.612207 -2.310044 29.682585 0.160380 -1.212913 15.064440 0.000001 0.000001 -0.000000 -2.300332 1.819629 24.895896 0.943043 -2.811685 37.076746 0.549537 -2.196546 28.088762 0.000000 -0.000001 0.000002 -4.095674 0.126283 44.212149 0.354575 -1.784066 22.479824 0.315455 -1.686467 21.188008 -0.000000 0.000001 0.000001 -7.121430 3.124819 44.932338 0.593118 -2.276253 29.205213 0.125376 -1.074448 13.310427 0.000001 0.000000 0.000001 -80.195334 -1.985613 21.236860 97.900011 -2.283007 0.469989 -33.234577 0.432190 -2.757491 -1.235155 -0.000003 0.000001 -0.000000 0.000001 0.000001 -78.886602 -1.418560 -14.253597 93.188444 3.481989 -0.279997 -29.971386 0.060433 3.093550 -1.014149 0.000001 -0.000004 0.000000 0.000001 -0.000000 
